solid robot-3-0 - copia
facet normal 0.0 0.0 -1.0
   outer loop
      vertex 624.229085716152 463.813645568216 -0.138400000000018
      vertex 624.229085716152 460.448997981883 -0.138400000000018
      vertex 623.888343979042 462.13132177505 -0.138400000000018
   endloop
endfacet
facet normal 0.0 0.0 -1.0
   outer loop
      vertex 624.229085716152 460.448997981883 -0.138400000000018
      vertex 624.229085716152 463.813645568216 -0.138400000000018
      vertex 625.228089941198 465.38132177505 -0.138400000000018
   endloop
endfacet
facet normal 0.0 0.0 -1.0
   outer loop
      vertex 624.229085716152 460.448997981883 -0.138400000000018
      vertex 625.228089941198 465.38132177505 -0.138400000000018
      vertex 625.228089941198 458.88132177505 -0.138400000000018
   endloop
endfacet
facet normal 0.0 0.0 -1.0
   outer loop
      vertex 625.228089941198 458.88132177505 -0.138400000000018
      vertex 625.228089941198 465.38132177505 -0.138400000000018
      vertex 625.913460784158 462.404670565881 -0.138400000000018
   endloop
endfacet
facet normal 0.0 0.0 -1.0
   outer loop
      vertex 625.913460784158 462.404670565881 -0.138400000000018
      vertex 625.228089941198 465.38132177505 -0.138400000000018
      vertex 626.817276167177 466.727515852762 -0.138400000000018
   endloop
endfacet
facet normal 0.0 0.0 -1.0
   outer loop
      vertex 625.228089941198 458.88132177505 -0.138400000000018
      vertex 625.913460784158 462.404670565881 -0.138400000000018
      vertex 625.892968337321 462.013628571561 -0.138400000000018
   endloop
endfacet
facet normal 0.0 0.0 -1.0
   outer loop
      vertex 625.913460784158 462.404670565881 -0.138400000000018
      vertex 626.817276167177 466.727515852762 -0.138400000000018
      vertex 626.034464083367 462.777084291836 -0.138400000000018
   endloop
endfacet
facet normal 0.0 0.0 -1.0
   outer loop
      vertex 626.034464083367 462.777084291836 -0.138400000000018
      vertex 626.817276167177 466.727515852762 -0.138400000000018
      vertex 626.247732060074 463.105490369445 -0.138400000000018
   endloop
endfacet
facet normal 0.0 0.0 -1.0
   outer loop
      vertex 626.247732060074 463.105490369445 -0.138400000000018
      vertex 626.817276167177 466.727515852762 -0.138400000000018
      vertex 626.538730854108 463.367508467236 -0.138400000000018
   endloop
endfacet
facet normal 0.0 0.0 -1.0
   outer loop
      vertex 626.538730854108 463.367508467236 -0.138400000000018
      vertex 626.817276167177 466.727515852762 -0.138400000000018
      vertex 626.887629378554 463.54528248485 -0.138400000000018
   endloop
endfacet
facet normal 0.0 0.0 -1.0
   outer loop
      vertex 626.887629378554 463.54528248485 -0.138400000000018
      vertex 626.817276167177 466.727515852762 -0.138400000000018
      vertex 628.888343979042 467.760486899648 -0.138400000000018
   endloop
endfacet
facet normal 0.0 0.0 -1.0
   outer loop
      vertex 626.887629378554 463.54528248485 -0.138400000000018
      vertex 628.888343979042 467.760486899648 -0.138400000000018
      vertex 627.270650775554 463.626697416771 -0.138400000000018
   endloop
endfacet
facet normal 0.0 0.0 -1.0
   outer loop
      vertex 627.270650775554 463.626697416771 -0.138400000000018
      vertex 628.888343979042 467.760486899648 -0.138400000000018
      vertex 627.661692769874 463.606204969933 -0.138400000000018
   endloop
endfacet
facet normal 0.0 0.0 -1.0
   outer loop
      vertex 627.661692769874 463.606204969933 -0.138400000000018
      vertex 628.888343979042 467.760486899648 -0.138400000000018
      vertex 628.034106495829 463.485201670725 -0.138400000000018
   endloop
endfacet
facet normal 0.0 0.0 -1.0
   outer loop
      vertex 628.034106495829 463.485201670725 -0.138400000000018
      vertex 628.888343979042 467.760486899648 -0.138400000000018
      vertex 628.362512573438 463.271933694018 -0.138400000000018
   endloop
endfacet
facet normal 0.0 0.0 -1.0
   outer loop
      vertex 628.362512573438 463.271933694018 -0.138400000000018
      vertex 628.888343979042 467.760486899648 -0.138400000000018
      vertex 628.624530671229 462.980934899984 -0.138400000000018
   endloop
endfacet
facet normal 0.0 0.0 -1.0
   outer loop
      vertex 628.624530671229 462.980934899984 -0.138400000000018
      vertex 628.888343979042 467.760486899648 -0.138400000000018
      vertex 628.802304688842 462.632036375538 -0.138400000000018
   endloop
endfacet
facet normal 0.0 0.0 -1.0
   outer loop
      vertex 628.802304688842 462.632036375538 -0.138400000000018
      vertex 628.888343979042 467.760486899648 -0.138400000000018
      vertex 628.883719620763 462.249014978538 -0.138400000000018
   endloop
endfacet
facet normal 0.0 0.0 -1.0
   outer loop
      vertex 625.892968337321 462.013628571561 -0.138400000000018
      vertex 626.817276167177 457.535127697337 -0.138400000000018
      vertex 625.228089941198 458.88132177505 -0.138400000000018
   endloop
endfacet
facet normal 0.0 0.0 -1.0
   outer loop
      vertex 626.817276167177 457.535127697337 -0.138400000000018
      vertex 625.892968337321 462.013628571561 -0.138400000000018
      vertex 625.974383269242 461.630607174562 -0.138400000000018
   endloop
endfacet
facet normal 0.0 0.0 -1.0
   outer loop
      vertex 626.817276167177 457.535127697337 -0.138400000000018
      vertex 625.974383269242 461.630607174562 -0.138400000000018
      vertex 626.152157286856 461.281708650115 -0.138400000000018
   endloop
endfacet
facet normal 0.0 0.0 -1.0
   outer loop
      vertex 626.817276167177 457.535127697337 -0.138400000000018
      vertex 626.152157286856 461.281708650115 -0.138400000000018
      vertex 626.414175384646 460.990709856081 -0.138400000000018
   endloop
endfacet
facet normal 0.0 0.0 -1.0
   outer loop
      vertex 626.817276167177 457.535127697337 -0.138400000000018
      vertex 626.414175384646 460.990709856081 -0.138400000000018
      vertex 626.742581462256 460.777441879374 -0.138400000000018
   endloop
endfacet
facet normal 0.0 0.0 -1.0
   outer loop
      vertex 626.817276167177 457.535127697337 -0.138400000000018
      vertex 626.742581462256 460.777441879374 -0.138400000000018
      vertex 627.114995188211 460.656438580166 -0.138400000000018
   endloop
endfacet
facet normal 0.0 0.0 -1.0
   outer loop
      vertex 626.817276167177 457.535127697337 -0.138400000000018
      vertex 627.114995188211 460.656438580166 -0.138400000000018
      vertex 628.888343979042 456.502156650451 -0.138400000000018
   endloop
endfacet
facet normal 0.0 0.0 -1.0
   outer loop
      vertex 628.888343979042 456.502156650451 -0.138400000000018
      vertex 627.114995188211 460.656438580166 -0.138400000000018
      vertex 627.506037182531 460.635946133329 -0.138400000000018
   endloop
endfacet
facet normal 0.0 0.0 -1.0
   outer loop
      vertex 628.888343979042 456.502156650451 -0.138400000000018
      vertex 627.506037182531 460.635946133329 -0.138400000000018
      vertex 627.88905857953 460.71736106525 -0.138400000000018
   endloop
endfacet
facet normal 0.0 0.0 -1.0
   outer loop
      vertex 628.888343979042 456.502156650451 -0.138400000000018
      vertex 627.88905857953 460.71736106525 -0.138400000000018
      vertex 628.237957103977 460.895135082863 -0.138400000000018
   endloop
endfacet
facet normal 0.0 0.0 -1.0
   outer loop
      vertex 628.888343979042 456.502156650451 -0.138400000000018
      vertex 628.237957103977 460.895135082863 -0.138400000000018
      vertex 628.528955898011 461.157153180654 -0.138400000000018
   endloop
endfacet
facet normal 0.0 0.0 -1.0
   outer loop
      vertex 628.888343979042 456.502156650451 -0.138400000000018
      vertex 628.528955898011 461.157153180654 -0.138400000000018
      vertex 628.742223874718 461.485559258263 -0.138400000000018
   endloop
endfacet
facet normal 0.0 0.0 -1.0
   outer loop
      vertex 628.888343979042 456.502156650451 -0.138400000000018
      vertex 628.742223874718 461.485559258263 -0.138400000000018
      vertex 628.863227173926 461.857972984218 -0.138400000000018
   endloop
endfacet
facet normal 0.0 0.0 -1.0
   outer loop
      vertex 628.888343979042 456.502156650451 -0.138400000000018
      vertex 628.863227173926 461.857972984218 -0.138400000000018
      vertex 628.883719620763 462.249014978538 -0.138400000000018
   endloop
endfacet
facet normal 0.0 0.0 -1.0
   outer loop
      vertex 628.888343979042 456.502156650451 -0.138400000000018
      vertex 628.883719620763 462.249014978538 -0.138400000000018
      vertex 628.888343979042 467.760486899648 -0.138400000000018
   endloop
endfacet
facet normal 0.0 0.0 -1.0
   outer loop
      vertex 628.888343979042 456.502156650451 -0.138400000000018
      vertex 628.888343979042 467.760486899648 -0.138400000000018
      vertex 631.300153528017 468.409839645929 -0.138400000000018
   endloop
endfacet
facet normal 0.0 0.0 -1.0
   outer loop
      vertex 628.888343979042 456.502156650451 -0.138400000000018
      vertex 631.300153528017 468.409839645929 -0.138400000000018
      vertex 631.300153528017 455.852803904171 -0.138400000000018
   endloop
endfacet
facet normal 0.0 0.0 -1.0
   outer loop
      vertex 631.300153528017 455.852803904171 -0.138400000000018
      vertex 631.300153528017 468.409839645929 -0.138400000000018
      vertex 633.888343979042 468.63132177505 -0.138400000000018
   endloop
endfacet
facet normal 0.0 0.0 -1.0
   outer loop
      vertex 631.300153528017 455.852803904171 -0.138400000000018
      vertex 633.888343979042 468.63132177505 -0.138400000000018
      vertex 633.888343979042 455.63132177505 -0.138400000000018
   endloop
endfacet
facet normal 0.0 0.0 -1.0
   outer loop
      vertex 633.888343979042 455.63132177505 -0.138400000000018
      vertex 633.888343979042 468.63132177505 -0.138400000000018
      vertex 636.476534430068 468.409839645929 -0.138400000000018
   endloop
endfacet
facet normal 0.0 0.0 -1.0
   outer loop
      vertex 633.888343979042 455.63132177505 -0.138400000000018
      vertex 636.476534430068 468.409839645929 -0.138400000000018
      vertex 636.476534430068 455.852803904171 -0.138400000000018
   endloop
endfacet
facet normal 0.0 0.0 -1.0
   outer loop
      vertex 636.476534430068 455.852803904171 -0.138400000000018
      vertex 636.476534430068 468.409839645929 -0.138400000000018
      vertex 638.888343979042 467.760486899648 -0.138400000000018
   endloop
endfacet
facet normal 0.0 0.0 -1.0
   outer loop
      vertex 636.476534430068 455.852803904171 -0.138400000000018
      vertex 638.888343979042 467.760486899648 -0.138400000000018
      vertex 638.888343979042 456.502156650451 -0.138400000000018
   endloop
endfacet
facet normal 0.0 0.0 -1.0
   outer loop
      vertex 638.888343979042 456.502156650451 -0.138400000000018
      vertex 638.888343979042 467.760486899648 -0.138400000000018
      vertex 640.959411790908 466.727515852762 -0.138400000000018
   endloop
endfacet
facet normal 0.0 0.0 -1.0
   outer loop
      vertex 638.888343979042 456.502156650451 -0.138400000000018
      vertex 640.959411790908 466.727515852762 -0.138400000000018
      vertex 640.959411790908 457.535127697337 -0.138400000000018
   endloop
endfacet
facet normal 0.0 0.0 -1.0
   outer loop
      vertex 640.959411790908 457.535127697337 -0.138400000000018
      vertex 640.959411790908 466.727515852762 -0.138400000000018
      vertex 642.548598016887 465.38132177505 -0.138400000000018
   endloop
endfacet
facet normal 0.0 0.0 -1.0
   outer loop
      vertex 640.959411790908 457.535127697337 -0.138400000000018
      vertex 642.548598016887 465.38132177505 -0.138400000000018
      vertex 642.548598016887 458.88132177505 -0.138400000000018
   endloop
endfacet
facet normal 0.0 0.0 -1.0
   outer loop
      vertex 642.548598016887 458.88132177505 -0.138400000000018
      vertex 642.548598016887 465.38132177505 -0.138400000000018
      vertex 643.547602241933 463.813645568216 -0.138400000000018
   endloop
endfacet
facet normal 0.0 0.0 -1.0
   outer loop
      vertex 642.548598016887 458.88132177505 -0.138400000000018
      vertex 643.547602241933 463.813645568216 -0.138400000000018
      vertex 643.547602241933 460.448997981883 -0.138400000000018
   endloop
endfacet
facet normal 0.0 0.0 -1.0
   outer loop
      vertex 643.547602241933 460.448997981883 -0.138400000000018
      vertex 643.547602241933 463.813645568216 -0.138400000000018
      vertex 643.888343979042 462.13132177505 -0.138400000000018
   endloop
endfacet
facet normal -0.753336329656247 0.657635441882548 0.0
   outer loop
      vertex 625.228089941198 465.38132177505 0.861599999999982
      vertex 624.229085716152 463.813645568216 -0.138400000000018
      vertex 624.229085716152 463.813645568216 0.861599999999982
   endloop
endfacet
facet normal -0.753336329656247 0.657635441882548 0.0
   outer loop
      vertex 624.229085716152 463.813645568216 -0.138400000000018
      vertex 625.228089941198 465.38132177505 0.861599999999982
      vertex 625.228089941198 465.38132177505 -0.138400000000018
   endloop
endfacet
facet normal -0.173304733014145 0.984868249825781 0.0
   outer loop
      vertex 631.300153528017 468.409839645929 0.861599999999982
      vertex 633.888343979042 468.63132177505 -0.138400000000018
      vertex 631.300153528017 468.409839645929 -0.138400000000018
   endloop
endfacet
facet normal -0.173304733014145 0.984868249825781 0.0
   outer loop
      vertex 633.888343979042 468.63132177505 -0.138400000000018
      vertex 631.300153528017 468.409839645929 0.861599999999982
      vertex 633.888343979042 468.63132177505 0.861599999999982
   endloop
endfacet
facet normal 0.173304733014148 0.98486824982578 0.0
   outer loop
      vertex 636.476534430068 468.409839645929 0.861599999999982
      vertex 638.888343979042 467.760486899648 -0.138400000000018
      vertex 636.476534430068 468.409839645929 -0.138400000000018
   endloop
endfacet
facet normal 0.173304733014148 0.98486824982578 0.0
   outer loop
      vertex 638.888343979042 467.760486899648 -0.138400000000018
      vertex 636.476534430068 468.409839645929 0.861599999999982
      vertex 638.888343979042 467.760486899648 0.861599999999982
   endloop
endfacet
facet normal 0.980098574029482 -0.198511423312048 0.0
   outer loop
      vertex 643.888343979042 462.13132177505 -0.138400000000018
      vertex 643.547602241933 460.448997981883 0.861599999999982
      vertex 643.547602241933 460.448997981883 -0.138400000000018
   endloop
endfacet
facet normal 0.980098574029482 -0.198511423312048 0.0
   outer loop
      vertex 643.547602241933 460.448997981883 0.861599999999982
      vertex 643.888343979042 462.13132177505 -0.138400000000018
      vertex 643.888343979042 462.13132177505 0.861599999999982
   endloop
endfacet
facet normal -0.980098574029482 0.198511423312048 0.0
   outer loop
      vertex 624.229085716152 463.813645568216 0.861599999999982
      vertex 623.888343979042 462.13132177505 -0.138400000000018
      vertex 623.888343979042 462.13132177505 0.861599999999982
   endloop
endfacet
facet normal -0.980098574029482 0.198511423312048 0.0
   outer loop
      vertex 623.888343979042 462.13132177505 -0.138400000000018
      vertex 624.229085716152 463.813645568216 0.861599999999982
      vertex 624.229085716152 463.813645568216 -0.138400000000018
   endloop
endfacet
facet normal -0.843322126015792 -0.537408403146252 -0.0
   outer loop
      vertex 624.229085716152 460.448997981883 0.861599999999982
      vertex 625.228089941198 458.88132177505 -0.138400000000018
      vertex 625.228089941198 458.88132177505 0.861599999999982
   endloop
endfacet
facet normal -0.843322126015792 -0.537408403146252 -0.0
   outer loop
      vertex 625.228089941198 458.88132177505 -0.138400000000018
      vertex 624.229085716152 460.448997981883 0.861599999999982
      vertex 624.229085716152 460.448997981883 -0.138400000000018
   endloop
endfacet
facet normal 2.96163267393752e-015 1.0 0.0
   outer loop
      vertex 633.888343979042 468.63132177505 0.861599999999982
      vertex 636.476534430068 468.409839645929 -0.138400000000018
      vertex 633.888343979042 468.63132177505 -0.138400000000018
   endloop
endfacet
facet normal 2.96163267393752e-015 1.0 0.0
   outer loop
      vertex 636.476534430068 468.409839645929 -0.138400000000018
      vertex 633.888343979042 468.63132177505 0.861599999999982
      vertex 636.476534430068 468.409839645929 0.861599999999982
   endloop
endfacet
facet normal 0.0 0.0 1.0
   outer loop
      vertex 624.229085716152 460.448997981883 0.861599999999982
      vertex 624.229085716152 463.813645568216 0.861599999999982
      vertex 623.888343979042 462.13132177505 0.861599999999982
   endloop
endfacet
facet normal 0.0 0.0 1.0
   outer loop
      vertex 624.229085716152 463.813645568216 0.861599999999982
      vertex 624.229085716152 460.448997981883 0.861599999999982
      vertex 625.228089941198 458.88132177505 0.861599999999982
   endloop
endfacet
facet normal 0.0 0.0 1.0
   outer loop
      vertex 624.229085716152 463.813645568216 0.861599999999982
      vertex 625.228089941198 458.88132177505 0.861599999999982
      vertex 625.228089941198 465.38132177505 0.861599999999982
   endloop
endfacet
facet normal 0.0 0.0 1.0
   outer loop
      vertex 625.228089941198 465.38132177505 0.861599999999982
      vertex 625.228089941198 458.88132177505 0.861599999999982
      vertex 625.892968337321 462.013628571561 0.861599999999982
   endloop
endfacet
facet normal 0.0 0.0 1.0
   outer loop
      vertex 625.892968337321 462.013628571561 0.861599999999982
      vertex 625.228089941198 458.88132177505 0.861599999999982
      vertex 626.817276167177 457.535127697337 0.861599999999982
   endloop
endfacet
facet normal 0.0 0.0 1.0
   outer loop
      vertex 625.892968337321 462.013628571561 0.861599999999982
      vertex 626.817276167177 457.535127697337 0.861599999999982
      vertex 625.974383269242 461.630607174562 0.861599999999982
   endloop
endfacet
facet normal 0.0 0.0 1.0
   outer loop
      vertex 625.974383269242 461.630607174562 0.861599999999982
      vertex 626.817276167177 457.535127697337 0.861599999999982
      vertex 626.152157286856 461.281708650115 0.861599999999982
   endloop
endfacet
facet normal 0.0 0.0 1.0
   outer loop
      vertex 626.152157286856 461.281708650115 0.861599999999982
      vertex 626.817276167177 457.535127697337 0.861599999999982
      vertex 626.414175384646 460.990709856081 0.861599999999982
   endloop
endfacet
facet normal 0.0 0.0 1.0
   outer loop
      vertex 626.414175384646 460.990709856081 0.861599999999982
      vertex 626.817276167177 457.535127697337 0.861599999999982
      vertex 626.742581462256 460.777441879374 0.861599999999982
   endloop
endfacet
facet normal 0.0 0.0 1.0
   outer loop
      vertex 626.742581462256 460.777441879374 0.861599999999982
      vertex 626.817276167177 457.535127697337 0.861599999999982
      vertex 627.114995188211 460.656438580166 0.861599999999982
   endloop
endfacet
facet normal 0.0 0.0 1.0
   outer loop
      vertex 627.114995188211 460.656438580166 0.861599999999982
      vertex 626.817276167177 457.535127697337 0.861599999999982
      vertex 628.888343979042 456.502156650451 0.861599999999982
   endloop
endfacet
facet normal 0.0 0.0 1.0
   outer loop
      vertex 627.114995188211 460.656438580166 0.861599999999982
      vertex 628.888343979042 456.502156650451 0.861599999999982
      vertex 627.506037182531 460.635946133329 0.861599999999982
   endloop
endfacet
facet normal 0.0 0.0 1.0
   outer loop
      vertex 627.506037182531 460.635946133329 0.861599999999982
      vertex 628.888343979042 456.502156650451 0.861599999999982
      vertex 627.88905857953 460.71736106525 0.861599999999982
   endloop
endfacet
facet normal 0.0 0.0 1.0
   outer loop
      vertex 627.88905857953 460.71736106525 0.861599999999982
      vertex 628.888343979042 456.502156650451 0.861599999999982
      vertex 628.237957103977 460.895135082863 0.861599999999982
   endloop
endfacet
facet normal 0.0 0.0 1.0
   outer loop
      vertex 628.237957103977 460.895135082863 0.861599999999982
      vertex 628.888343979042 456.502156650451 0.861599999999982
      vertex 628.528955898011 461.157153180654 0.861599999999982
   endloop
endfacet
facet normal 0.0 0.0 1.0
   outer loop
      vertex 628.528955898011 461.157153180654 0.861599999999982
      vertex 628.888343979042 456.502156650451 0.861599999999982
      vertex 628.742223874718 461.485559258263 0.861599999999982
   endloop
endfacet
facet normal 0.0 0.0 1.0
   outer loop
      vertex 628.742223874718 461.485559258263 0.861599999999982
      vertex 628.888343979042 456.502156650451 0.861599999999982
      vertex 628.863227173926 461.857972984218 0.861599999999982
   endloop
endfacet
facet normal 0.0 0.0 1.0
   outer loop
      vertex 628.863227173926 461.857972984218 0.861599999999982
      vertex 628.888343979042 456.502156650451 0.861599999999982
      vertex 628.883719620763 462.249014978538 0.861599999999982
   endloop
endfacet
facet normal 0.0 0.0 1.0
   outer loop
      vertex 625.228089941198 465.38132177505 0.861599999999982
      vertex 625.913460784158 462.404670565881 0.861599999999982
      vertex 626.817276167177 466.727515852762 0.861599999999982
   endloop
endfacet
facet normal 0.0 0.0 1.0
   outer loop
      vertex 625.913460784158 462.404670565881 0.861599999999982
      vertex 625.228089941198 465.38132177505 0.861599999999982
      vertex 625.892968337321 462.013628571561 0.861599999999982
   endloop
endfacet
facet normal 0.0 0.0 1.0
   outer loop
      vertex 626.817276167177 466.727515852762 0.861599999999982
      vertex 625.913460784158 462.404670565881 0.861599999999982
      vertex 626.034464083367 462.777084291836 0.861599999999982
   endloop
endfacet
facet normal 0.0 0.0 1.0
   outer loop
      vertex 626.817276167177 466.727515852762 0.861599999999982
      vertex 626.034464083367 462.777084291836 0.861599999999982
      vertex 626.247732060074 463.105490369445 0.861599999999982
   endloop
endfacet
facet normal 0.0 0.0 1.0
   outer loop
      vertex 626.817276167177 466.727515852762 0.861599999999982
      vertex 626.247732060074 463.105490369445 0.861599999999982
      vertex 626.538730854108 463.367508467236 0.861599999999982
   endloop
endfacet
facet normal 0.0 0.0 1.0
   outer loop
      vertex 626.817276167177 466.727515852762 0.861599999999982
      vertex 626.538730854108 463.367508467236 0.861599999999982
      vertex 626.887629378554 463.54528248485 0.861599999999982
   endloop
endfacet
facet normal 0.0 0.0 1.0
   outer loop
      vertex 626.817276167177 466.727515852762 0.861599999999982
      vertex 626.887629378554 463.54528248485 0.861599999999982
      vertex 628.888343979042 467.760486899648 0.861599999999982
   endloop
endfacet
facet normal 0.0 0.0 1.0
   outer loop
      vertex 628.888343979042 467.760486899648 0.861599999999982
      vertex 626.887629378554 463.54528248485 0.861599999999982
      vertex 627.270650775554 463.626697416771 0.861599999999982
   endloop
endfacet
facet normal 0.0 0.0 1.0
   outer loop
      vertex 628.888343979042 467.760486899648 0.861599999999982
      vertex 627.270650775554 463.626697416771 0.861599999999982
      vertex 627.661692769874 463.606204969933 0.861599999999982
   endloop
endfacet
facet normal 0.0 0.0 1.0
   outer loop
      vertex 628.888343979042 467.760486899648 0.861599999999982
      vertex 627.661692769874 463.606204969933 0.861599999999982
      vertex 628.034106495829 463.485201670725 0.861599999999982
   endloop
endfacet
facet normal 0.0 0.0 1.0
   outer loop
      vertex 628.888343979042 467.760486899648 0.861599999999982
      vertex 628.034106495829 463.485201670725 0.861599999999982
      vertex 628.362512573438 463.271933694018 0.861599999999982
   endloop
endfacet
facet normal 0.0 0.0 1.0
   outer loop
      vertex 628.888343979042 467.760486899648 0.861599999999982
      vertex 628.362512573438 463.271933694018 0.861599999999982
      vertex 628.624530671229 462.980934899984 0.861599999999982
   endloop
endfacet
facet normal 0.0 0.0 1.0
   outer loop
      vertex 628.888343979042 467.760486899648 0.861599999999982
      vertex 628.624530671229 462.980934899984 0.861599999999982
      vertex 628.802304688842 462.632036375538 0.861599999999982
   endloop
endfacet
facet normal 0.0 0.0 1.0
   outer loop
      vertex 628.888343979042 467.760486899648 0.861599999999982
      vertex 628.802304688842 462.632036375538 0.861599999999982
      vertex 628.883719620763 462.249014978538 0.861599999999982
   endloop
endfacet
facet normal 0.0 0.0 1.0
   outer loop
      vertex 628.888343979042 467.760486899648 0.861599999999982
      vertex 628.883719620763 462.249014978538 0.861599999999982
      vertex 628.888343979042 456.502156650451 0.861599999999982
   endloop
endfacet
facet normal 0.0 0.0 1.0
   outer loop
      vertex 628.888343979042 467.760486899648 0.861599999999982
      vertex 628.888343979042 456.502156650451 0.861599999999982
      vertex 631.300153528017 455.852803904171 0.861599999999982
   endloop
endfacet
facet normal 0.0 0.0 1.0
   outer loop
      vertex 628.888343979042 467.760486899648 0.861599999999982
      vertex 631.300153528017 455.852803904171 0.861599999999982
      vertex 631.300153528017 468.409839645929 0.861599999999982
   endloop
endfacet
facet normal 0.0 0.0 1.0
   outer loop
      vertex 631.300153528017 468.409839645929 0.861599999999982
      vertex 631.300153528017 455.852803904171 0.861599999999982
      vertex 633.888343979042 455.63132177505 0.861599999999982
   endloop
endfacet
facet normal 0.0 0.0 1.0
   outer loop
      vertex 631.300153528017 468.409839645929 0.861599999999982
      vertex 633.888343979042 455.63132177505 0.861599999999982
      vertex 633.888343979042 468.63132177505 0.861599999999982
   endloop
endfacet
facet normal 0.0 0.0 1.0
   outer loop
      vertex 633.888343979042 468.63132177505 0.861599999999982
      vertex 633.888343979042 455.63132177505 0.861599999999982
      vertex 636.476534430068 455.852803904171 0.861599999999982
   endloop
endfacet
facet normal 0.0 0.0 1.0
   outer loop
      vertex 633.888343979042 468.63132177505 0.861599999999982
      vertex 636.476534430068 455.852803904171 0.861599999999982
      vertex 636.476534430068 468.409839645929 0.861599999999982
   endloop
endfacet
facet normal 0.0 0.0 1.0
   outer loop
      vertex 636.476534430068 468.409839645929 0.861599999999982
      vertex 636.476534430068 455.852803904171 0.861599999999982
      vertex 638.888343979042 456.502156650451 0.861599999999982
   endloop
endfacet
facet normal 0.0 0.0 1.0
   outer loop
      vertex 636.476534430068 468.409839645929 0.861599999999982
      vertex 638.888343979042 456.502156650451 0.861599999999982
      vertex 638.888343979042 467.760486899648 0.861599999999982
   endloop
endfacet
facet normal 0.0 0.0 1.0
   outer loop
      vertex 638.888343979042 467.760486899648 0.861599999999982
      vertex 638.888343979042 456.502156650451 0.861599999999982
      vertex 640.959411790908 457.535127697337 0.861599999999982
   endloop
endfacet
facet normal 0.0 0.0 1.0
   outer loop
      vertex 638.888343979042 467.760486899648 0.861599999999982
      vertex 640.959411790908 457.535127697337 0.861599999999982
      vertex 640.959411790908 466.727515852762 0.861599999999982
   endloop
endfacet
facet normal 0.0 0.0 1.0
   outer loop
      vertex 640.959411790908 466.727515852762 0.861599999999982
      vertex 640.959411790908 457.535127697337 0.861599999999982
      vertex 642.548598016887 458.88132177505 0.861599999999982
   endloop
endfacet
facet normal 0.0 0.0 1.0
   outer loop
      vertex 640.959411790908 466.727515852762 0.861599999999982
      vertex 642.548598016887 458.88132177505 0.861599999999982
      vertex 642.548598016887 465.38132177505 0.861599999999982
   endloop
endfacet
facet normal 0.0 0.0 1.0
   outer loop
      vertex 642.548598016887 465.38132177505 0.861599999999982
      vertex 642.548598016887 458.88132177505 0.861599999999982
      vertex 643.547602241933 460.448997981883 0.861599999999982
   endloop
endfacet
facet normal 0.0 0.0 1.0
   outer loop
      vertex 642.548598016887 465.38132177505 0.861599999999982
      vertex 643.547602241933 460.448997981883 0.861599999999982
      vertex 643.547602241933 463.813645568216 0.861599999999982
   endloop
endfacet
facet normal 0.0 0.0 1.0
   outer loop
      vertex 643.547602241933 463.813645568216 0.861599999999982
      vertex 643.547602241933 460.448997981883 0.861599999999982
      vertex 643.888343979042 462.13132177505 0.861599999999982
   endloop
endfacet
facet normal -0.35492112052848 0.93489624996724 0.0
   outer loop
      vertex 628.888343979042 467.760486899648 0.861599999999982
      vertex 631.300153528017 468.409839645929 -0.138400000000018
      vertex 628.888343979042 467.760486899648 -0.138400000000018
   endloop
endfacet
facet normal -0.35492112052848 0.93489624996724 0.0
   outer loop
      vertex 631.300153528017 468.409839645929 -0.138400000000018
      vertex 628.888343979042 467.760486899648 0.861599999999982
      vertex 631.300153528017 468.409839645929 0.861599999999982
   endloop
endfacet
facet normal 0.173304733014148 -0.98486824982578 0.0
   outer loop
      vertex 636.476534430068 455.852803904171 0.861599999999982
      vertex 633.888343979042 455.63132177505 -0.138400000000018
      vertex 636.476534430068 455.852803904171 -0.138400000000018
   endloop
endfacet
facet normal 0.173304733014148 -0.98486824982578 0.0
   outer loop
      vertex 633.888343979042 455.63132177505 -0.138400000000018
      vertex 636.476534430068 455.852803904171 0.861599999999982
      vertex 633.888343979042 455.63132177505 0.861599999999982
   endloop
endfacet
facet normal 0.550306755818352 -0.834962558741816 0.0
   outer loop
      vertex 640.959411790908 457.535127697337 0.861599999999982
      vertex 638.888343979042 456.502156650451 -0.138400000000018
      vertex 640.959411790908 457.535127697337 -0.138400000000018
   endloop
endfacet
facet normal 0.550306755818352 -0.834962558741816 0.0
   outer loop
      vertex 638.888343979042 456.502156650451 -0.138400000000018
      vertex 640.959411790908 457.535127697337 0.861599999999982
      vertex 638.888343979042 456.502156650451 0.861599999999982
   endloop
endfacet
facet normal 2.96163267393752e-015 -1.0 0.0
   outer loop
      vertex 633.888343979042 455.63132177505 0.861599999999982
      vertex 631.300153528017 455.852803904171 -0.138400000000018
      vertex 633.888343979042 455.63132177505 -0.138400000000018
   endloop
endfacet
facet normal 2.96163267393752e-015 -1.0 0.0
   outer loop
      vertex 631.300153528017 455.852803904171 -0.138400000000018
      vertex 633.888343979042 455.63132177505 0.861599999999982
      vertex 631.300153528017 455.852803904171 0.861599999999982
   endloop
endfacet
facet normal -0.35492112052848 -0.93489624996724 0.0
   outer loop
      vertex 628.888343979042 456.502156650451 0.861599999999982
      vertex 626.817276167177 457.535127697337 -0.138400000000018
      vertex 628.888343979042 456.502156650451 -0.138400000000018
   endloop
endfacet
facet normal -0.35492112052848 -0.93489624996724 0.0
   outer loop
      vertex 626.817276167177 457.535127697337 -0.138400000000018
      vertex 628.888343979042 456.502156650451 0.861599999999982
      vertex 626.817276167177 457.535127697337 0.861599999999982
   endloop
endfacet
facet normal 0.843322126015792 -0.537408403146252 0.0
   outer loop
      vertex 643.547602241933 460.448997981883 -0.138400000000018
      vertex 642.548598016887 458.88132177505 0.861599999999982
      vertex 642.548598016887 458.88132177505 -0.138400000000018
   endloop
endfacet
facet normal 0.843322126015792 -0.537408403146252 0.0
   outer loop
      vertex 642.548598016887 458.88132177505 0.861599999999982
      vertex 643.547602241933 460.448997981883 -0.138400000000018
      vertex 643.547602241933 460.448997981883 0.861599999999982
   endloop
endfacet
facet normal 0.753336329656239 -0.657635441882558 0.0
   outer loop
      vertex 642.548598016887 458.88132177505 0.861599999999982
      vertex 640.959411790908 457.535127697337 -0.138400000000018
      vertex 642.548598016887 458.88132177505 -0.138400000000018
   endloop
endfacet
facet normal 0.753336329656239 -0.657635441882558 0.0
   outer loop
      vertex 640.959411790908 457.535127697337 -0.138400000000018
      vertex 642.548598016887 458.88132177505 0.861599999999982
      vertex 640.959411790908 457.535127697337 0.861599999999982
   endloop
endfacet
facet normal 0.753336329656247 0.657635441882548 0.0
   outer loop
      vertex 642.548598016887 465.38132177505 -0.138400000000018
      vertex 643.547602241933 463.813645568216 0.861599999999982
      vertex 643.547602241933 463.813645568216 -0.138400000000018
   endloop
endfacet
facet normal 0.753336329656247 0.657635441882548 0.0
   outer loop
      vertex 643.547602241933 463.813645568216 0.861599999999982
      vertex 642.548598016887 465.38132177505 -0.138400000000018
      vertex 642.548598016887 465.38132177505 0.861599999999982
   endloop
endfacet
facet normal 0.35492112052848 0.93489624996724 0.0
   outer loop
      vertex 638.888343979042 467.760486899648 0.861599999999982
      vertex 640.959411790908 466.727515852762 -0.138400000000018
      vertex 638.888343979042 467.760486899648 -0.138400000000018
   endloop
endfacet
facet normal 0.35492112052848 0.93489624996724 0.0
   outer loop
      vertex 640.959411790908 466.727515852762 -0.138400000000018
      vertex 638.888343979042 467.760486899648 0.861599999999982
      vertex 640.959411790908 466.727515852762 0.861599999999982
   endloop
endfacet
facet normal 0.980098574029482 0.198511423312048 0.0
   outer loop
      vertex 643.547602241933 463.813645568216 -0.138400000000018
      vertex 643.888343979042 462.13132177505 0.861599999999982
      vertex 643.888343979042 462.13132177505 -0.138400000000018
   endloop
endfacet
facet normal 0.980098574029482 0.198511423312048 0.0
   outer loop
      vertex 643.888343979042 462.13132177505 0.861599999999982
      vertex 643.547602241933 463.813645568216 -0.138400000000018
      vertex 643.547602241933 463.813645568216 0.861599999999982
   endloop
endfacet
facet normal -0.550306755818352 -0.834962558741816 0.0
   outer loop
      vertex 626.817276167177 457.535127697337 0.861599999999982
      vertex 625.228089941198 458.88132177505 -0.138400000000018
      vertex 626.817276167177 457.535127697337 -0.138400000000018
   endloop
endfacet
facet normal -0.550306755818352 -0.834962558741816 0.0
   outer loop
      vertex 625.228089941198 458.88132177505 -0.138400000000018
      vertex 626.817276167177 457.535127697337 0.861599999999982
      vertex 625.228089941198 458.88132177505 0.861599999999982
   endloop
endfacet
facet normal -0.173304733014145 -0.984868249825781 0.0
   outer loop
      vertex 631.300153528017 455.852803904171 0.861599999999982
      vertex 628.888343979042 456.502156650451 -0.138400000000018
      vertex 631.300153528017 455.852803904171 -0.138400000000018
   endloop
endfacet
facet normal -0.173304733014145 -0.984868249825781 0.0
   outer loop
      vertex 628.888343979042 456.502156650451 -0.138400000000018
      vertex 631.300153528017 455.852803904171 0.861599999999982
      vertex 628.888343979042 456.502156650451 0.861599999999982
   endloop
endfacet
facet normal -0.980098574029482 -0.198511423312048 -0.0
   outer loop
      vertex 623.888343979042 462.13132177505 0.861599999999982
      vertex 624.229085716152 460.448997981883 -0.138400000000018
      vertex 624.229085716152 460.448997981883 0.861599999999982
   endloop
endfacet
facet normal -0.980098574029482 -0.198511423312048 -0.0
   outer loop
      vertex 624.229085716152 460.448997981883 -0.138400000000018
      vertex 623.888343979042 462.13132177505 0.861599999999982
      vertex 623.888343979042 462.13132177505 -0.138400000000018
   endloop
endfacet
facet normal 0.550306755818352 0.834962558741816 0.0
   outer loop
      vertex 640.959411790908 466.727515852762 0.861599999999982
      vertex 642.548598016887 465.38132177505 -0.138400000000018
      vertex 640.959411790908 466.727515852762 -0.138400000000018
   endloop
endfacet
facet normal 0.550306755818352 0.834962558741816 0.0
   outer loop
      vertex 642.548598016887 465.38132177505 -0.138400000000018
      vertex 640.959411790908 466.727515852762 0.861599999999982
      vertex 642.548598016887 465.38132177505 0.861599999999982
   endloop
endfacet
facet normal -0.550306755818352 0.834962558741816 0.0
   outer loop
      vertex 626.817276167177 466.727515852762 0.861599999999982
      vertex 628.888343979042 467.760486899648 -0.138400000000018
      vertex 626.817276167177 466.727515852762 -0.138400000000018
   endloop
endfacet
facet normal -0.550306755818352 0.834962558741816 0.0
   outer loop
      vertex 628.888343979042 467.760486899648 -0.138400000000018
      vertex 626.817276167177 466.727515852762 0.861599999999982
      vertex 628.888343979042 467.760486899648 0.861599999999982
   endloop
endfacet
facet normal -0.753336329656247 0.657635441882548 0.0
   outer loop
      vertex 625.228089941198 465.38132177505 0.861599999999982
      vertex 626.817276167177 466.727515852762 -0.138400000000018
      vertex 625.228089941198 465.38132177505 -0.138400000000018
   endloop
endfacet
facet normal -0.753336329656247 0.657635441882548 0.0
   outer loop
      vertex 626.817276167177 466.727515852762 -0.138400000000018
      vertex 625.228089941198 465.38132177505 0.861599999999982
      vertex 626.817276167177 466.727515852762 0.861599999999982
   endloop
endfacet
facet normal 0.35492112052848 -0.93489624996724 0.0
   outer loop
      vertex 638.888343979042 456.502156650451 0.861599999999982
      vertex 636.476534430068 455.852803904171 -0.138400000000018
      vertex 638.888343979042 456.502156650451 -0.138400000000018
   endloop
endfacet
facet normal 0.35492112052848 -0.93489624996724 0.0
   outer loop
      vertex 636.476534430068 455.852803904171 -0.138400000000018
      vertex 638.888343979042 456.502156650451 0.861599999999982
      vertex 636.476534430068 455.852803904171 0.861599999999982
   endloop
endfacet
facet normal 0.0 0.0 -1.0
   outer loop
      vertex 592.539085716152 463.813645568216 -0.138400000000018
      vertex 592.539085716152 460.448997981883 -0.138400000000018
      vertex 592.198343979042 462.13132177505 -0.138400000000018
   endloop
endfacet
facet normal 0.0 0.0 -1.0
   outer loop
      vertex 592.539085716152 460.448997981883 -0.138400000000018
      vertex 592.539085716152 463.813645568216 -0.138400000000018
      vertex 593.538089941198 465.38132177505 -0.138400000000018
   endloop
endfacet
facet normal 0.0 0.0 -1.0
   outer loop
      vertex 592.539085716152 460.448997981883 -0.138400000000018
      vertex 593.538089941198 465.38132177505 -0.138400000000018
      vertex 593.538089941198 458.88132177505 -0.138400000000018
   endloop
endfacet
facet normal 0.0 0.0 -1.0
   outer loop
      vertex 593.538089941198 458.88132177505 -0.138400000000018
      vertex 593.538089941198 465.38132177505 -0.138400000000018
      vertex 594.223460784159 462.404670565881 -0.138400000000018
   endloop
endfacet
facet normal 0.0 0.0 -1.0
   outer loop
      vertex 594.223460784159 462.404670565881 -0.138400000000018
      vertex 593.538089941198 465.38132177505 -0.138400000000018
      vertex 595.127276167177 466.727515852762 -0.138400000000018
   endloop
endfacet
facet normal 0.0 0.0 -1.0
   outer loop
      vertex 593.538089941198 458.88132177505 -0.138400000000018
      vertex 594.223460784159 462.404670565881 -0.138400000000018
      vertex 594.202968337321 462.013628571561 -0.138400000000018
   endloop
endfacet
facet normal 0.0 0.0 -1.0
   outer loop
      vertex 594.223460784159 462.404670565881 -0.138400000000018
      vertex 595.127276167177 466.727515852762 -0.138400000000018
      vertex 594.344464083367 462.777084291836 -0.138400000000018
   endloop
endfacet
facet normal 0.0 0.0 -1.0
   outer loop
      vertex 594.344464083367 462.777084291836 -0.138400000000018
      vertex 595.127276167177 466.727515852762 -0.138400000000018
      vertex 594.557732060074 463.105490369445 -0.138400000000018
   endloop
endfacet
facet normal 0.0 0.0 -1.0
   outer loop
      vertex 594.557732060074 463.105490369445 -0.138400000000018
      vertex 595.127276167177 466.727515852762 -0.138400000000018
      vertex 594.848730854108 463.367508467236 -0.138400000000018
   endloop
endfacet
facet normal 0.0 0.0 -1.0
   outer loop
      vertex 594.848730854108 463.367508467236 -0.138400000000018
      vertex 595.127276167177 466.727515852762 -0.138400000000018
      vertex 595.197629378554 463.54528248485 -0.138400000000018
   endloop
endfacet
facet normal 0.0 0.0 -1.0
   outer loop
      vertex 595.197629378554 463.54528248485 -0.138400000000018
      vertex 595.127276167177 466.727515852762 -0.138400000000018
      vertex 597.198343979042 467.760486899648 -0.138400000000018
   endloop
endfacet
facet normal 0.0 0.0 -1.0
   outer loop
      vertex 595.197629378554 463.54528248485 -0.138400000000018
      vertex 597.198343979042 467.760486899648 -0.138400000000018
      vertex 595.580650775554 463.626697416771 -0.138400000000018
   endloop
endfacet
facet normal 0.0 0.0 -1.0
   outer loop
      vertex 595.580650775554 463.626697416771 -0.138400000000018
      vertex 597.198343979042 467.760486899648 -0.138400000000018
      vertex 595.971692769874 463.606204969933 -0.138400000000018
   endloop
endfacet
facet normal 0.0 0.0 -1.0
   outer loop
      vertex 595.971692769874 463.606204969933 -0.138400000000018
      vertex 597.198343979042 467.760486899648 -0.138400000000018
      vertex 596.344106495829 463.485201670725 -0.138400000000018
   endloop
endfacet
facet normal 0.0 0.0 -1.0
   outer loop
      vertex 596.344106495829 463.485201670725 -0.138400000000018
      vertex 597.198343979042 467.760486899648 -0.138400000000018
      vertex 596.672512573438 463.271933694018 -0.138400000000018
   endloop
endfacet
facet normal 0.0 0.0 -1.0
   outer loop
      vertex 596.672512573438 463.271933694018 -0.138400000000018
      vertex 597.198343979042 467.760486899648 -0.138400000000018
      vertex 596.934530671229 462.980934899984 -0.138400000000018
   endloop
endfacet
facet normal 0.0 0.0 -1.0
   outer loop
      vertex 596.934530671229 462.980934899984 -0.138400000000018
      vertex 597.198343979042 467.760486899648 -0.138400000000018
      vertex 597.112304688842 462.632036375538 -0.138400000000018
   endloop
endfacet
facet normal 0.0 0.0 -1.0
   outer loop
      vertex 597.112304688842 462.632036375538 -0.138400000000018
      vertex 597.198343979042 467.760486899648 -0.138400000000018
      vertex 597.193719620763 462.249014978538 -0.138400000000018
   endloop
endfacet
facet normal 0.0 0.0 -1.0
   outer loop
      vertex 594.202968337321 462.013628571561 -0.138400000000018
      vertex 595.127276167177 457.535127697337 -0.138400000000018
      vertex 593.538089941198 458.88132177505 -0.138400000000018
   endloop
endfacet
facet normal 0.0 0.0 -1.0
   outer loop
      vertex 595.127276167177 457.535127697337 -0.138400000000018
      vertex 594.202968337321 462.013628571561 -0.138400000000018
      vertex 594.284383269242 461.630607174562 -0.138400000000018
   endloop
endfacet
facet normal 0.0 0.0 -1.0
   outer loop
      vertex 595.127276167177 457.535127697337 -0.138400000000018
      vertex 594.284383269242 461.630607174562 -0.138400000000018
      vertex 594.462157286856 461.281708650115 -0.138400000000018
   endloop
endfacet
facet normal 0.0 0.0 -1.0
   outer loop
      vertex 595.127276167177 457.535127697337 -0.138400000000018
      vertex 594.462157286856 461.281708650115 -0.138400000000018
      vertex 594.724175384646 460.990709856081 -0.138400000000018
   endloop
endfacet
facet normal 0.0 0.0 -1.0
   outer loop
      vertex 595.127276167177 457.535127697337 -0.138400000000018
      vertex 594.724175384646 460.990709856081 -0.138400000000018
      vertex 595.052581462256 460.777441879374 -0.138400000000018
   endloop
endfacet
facet normal 0.0 0.0 -1.0
   outer loop
      vertex 595.127276167177 457.535127697337 -0.138400000000018
      vertex 595.052581462256 460.777441879374 -0.138400000000018
      vertex 595.424995188211 460.656438580166 -0.138400000000018
   endloop
endfacet
facet normal 0.0 0.0 -1.0
   outer loop
      vertex 595.127276167177 457.535127697337 -0.138400000000018
      vertex 595.424995188211 460.656438580166 -0.138400000000018
      vertex 597.198343979042 456.502156650451 -0.138400000000018
   endloop
endfacet
facet normal 0.0 0.0 -1.0
   outer loop
      vertex 597.198343979042 456.502156650451 -0.138400000000018
      vertex 595.424995188211 460.656438580166 -0.138400000000018
      vertex 595.816037182531 460.635946133329 -0.138400000000018
   endloop
endfacet
facet normal 0.0 0.0 -1.0
   outer loop
      vertex 597.198343979042 456.502156650451 -0.138400000000018
      vertex 595.816037182531 460.635946133329 -0.138400000000018
      vertex 596.19905857953 460.71736106525 -0.138400000000018
   endloop
endfacet
facet normal 0.0 0.0 -1.0
   outer loop
      vertex 597.198343979042 456.502156650451 -0.138400000000018
      vertex 596.19905857953 460.71736106525 -0.138400000000018
      vertex 596.547957103977 460.895135082863 -0.138400000000018
   endloop
endfacet
facet normal 0.0 0.0 -1.0
   outer loop
      vertex 597.198343979042 456.502156650451 -0.138400000000018
      vertex 596.547957103977 460.895135082863 -0.138400000000018
      vertex 596.838955898011 461.157153180654 -0.138400000000018
   endloop
endfacet
facet normal 0.0 0.0 -1.0
   outer loop
      vertex 597.198343979042 456.502156650451 -0.138400000000018
      vertex 596.838955898011 461.157153180654 -0.138400000000018
      vertex 597.052223874717 461.485559258263 -0.138400000000018
   endloop
endfacet
facet normal 0.0 0.0 -1.0
   outer loop
      vertex 597.198343979042 456.502156650451 -0.138400000000018
      vertex 597.052223874717 461.485559258263 -0.138400000000018
      vertex 597.173227173926 461.857972984218 -0.138400000000018
   endloop
endfacet
facet normal 0.0 0.0 -1.0
   outer loop
      vertex 597.198343979042 456.502156650451 -0.138400000000018
      vertex 597.173227173926 461.857972984218 -0.138400000000018
      vertex 597.193719620763 462.249014978538 -0.138400000000018
   endloop
endfacet
facet normal 0.0 0.0 -1.0
   outer loop
      vertex 597.198343979042 456.502156650451 -0.138400000000018
      vertex 597.193719620763 462.249014978538 -0.138400000000018
      vertex 597.198343979042 467.760486899648 -0.138400000000018
   endloop
endfacet
facet normal 0.0 0.0 -1.0
   outer loop
      vertex 597.198343979042 456.502156650451 -0.138400000000018
      vertex 597.198343979042 467.760486899648 -0.138400000000018
      vertex 599.610153528017 468.409839645929 -0.138400000000018
   endloop
endfacet
facet normal 0.0 0.0 -1.0
   outer loop
      vertex 597.198343979042 456.502156650451 -0.138400000000018
      vertex 599.610153528017 468.409839645929 -0.138400000000018
      vertex 599.610153528017 455.852803904171 -0.138400000000018
   endloop
endfacet
facet normal 0.0 0.0 -1.0
   outer loop
      vertex 599.610153528017 455.852803904171 -0.138400000000018
      vertex 599.610153528017 468.409839645929 -0.138400000000018
      vertex 602.198343979042 468.63132177505 -0.138400000000018
   endloop
endfacet
facet normal 0.0 0.0 -1.0
   outer loop
      vertex 599.610153528017 455.852803904171 -0.138400000000018
      vertex 602.198343979042 468.63132177505 -0.138400000000018
      vertex 602.198343979042 455.63132177505 -0.138400000000018
   endloop
endfacet
facet normal 0.0 0.0 -1.0
   outer loop
      vertex 602.198343979042 455.63132177505 -0.138400000000018
      vertex 602.198343979042 468.63132177505 -0.138400000000018
      vertex 604.786534430068 468.409839645929 -0.138400000000018
   endloop
endfacet
facet normal 0.0 0.0 -1.0
   outer loop
      vertex 602.198343979042 455.63132177505 -0.138400000000018
      vertex 604.786534430068 468.409839645929 -0.138400000000018
      vertex 604.786534430068 455.852803904171 -0.138400000000018
   endloop
endfacet
facet normal 0.0 0.0 -1.0
   outer loop
      vertex 604.786534430068 455.852803904171 -0.138400000000018
      vertex 604.786534430068 468.409839645929 -0.138400000000018
      vertex 607.198343979042 467.760486899648 -0.138400000000018
   endloop
endfacet
facet normal 0.0 0.0 -1.0
   outer loop
      vertex 604.786534430068 455.852803904171 -0.138400000000018
      vertex 607.198343979042 467.760486899648 -0.138400000000018
      vertex 607.198343979042 456.502156650451 -0.138400000000018
   endloop
endfacet
facet normal 0.0 0.0 -1.0
   outer loop
      vertex 607.198343979042 456.502156650451 -0.138400000000018
      vertex 607.198343979042 467.760486899648 -0.138400000000018
      vertex 609.269411790908 466.727515852762 -0.138400000000018
   endloop
endfacet
facet normal 0.0 0.0 -1.0
   outer loop
      vertex 607.198343979042 456.502156650451 -0.138400000000018
      vertex 609.269411790908 466.727515852762 -0.138400000000018
      vertex 609.269411790908 457.535127697337 -0.138400000000018
   endloop
endfacet
facet normal 0.0 0.0 -1.0
   outer loop
      vertex 609.269411790908 457.535127697337 -0.138400000000018
      vertex 609.269411790908 466.727515852762 -0.138400000000018
      vertex 610.858598016887 465.38132177505 -0.138400000000018
   endloop
endfacet
facet normal 0.0 0.0 -1.0
   outer loop
      vertex 609.269411790908 457.535127697337 -0.138400000000018
      vertex 610.858598016887 465.38132177505 -0.138400000000018
      vertex 610.858598016887 458.88132177505 -0.138400000000018
   endloop
endfacet
facet normal 0.0 0.0 -1.0
   outer loop
      vertex 610.858598016887 458.88132177505 -0.138400000000018
      vertex 610.858598016887 465.38132177505 -0.138400000000018
      vertex 611.857602241933 463.813645568216 -0.138400000000018
   endloop
endfacet
facet normal 0.0 0.0 -1.0
   outer loop
      vertex 610.858598016887 458.88132177505 -0.138400000000018
      vertex 611.857602241933 463.813645568216 -0.138400000000018
      vertex 611.857602241933 460.448997981883 -0.138400000000018
   endloop
endfacet
facet normal 0.0 0.0 -1.0
   outer loop
      vertex 611.857602241933 460.448997981883 -0.138400000000018
      vertex 611.857602241933 463.813645568216 -0.138400000000018
      vertex 612.198343979042 462.13132177505 -0.138400000000018
   endloop
endfacet
facet normal -0.753336329656247 0.657635441882548 0.0
   outer loop
      vertex 593.538089941198 465.38132177505 0.861599999999982
      vertex 592.539085716152 463.813645568216 -0.138400000000018
      vertex 592.539085716152 463.813645568216 0.861599999999982
   endloop
endfacet
facet normal -0.753336329656247 0.657635441882548 0.0
   outer loop
      vertex 592.539085716152 463.813645568216 -0.138400000000018
      vertex 593.538089941198 465.38132177505 0.861599999999982
      vertex 593.538089941198 465.38132177505 -0.138400000000018
   endloop
endfacet
facet normal -0.173304733014145 0.984868249825781 0.0
   outer loop
      vertex 599.610153528017 468.409839645929 0.861599999999982
      vertex 602.198343979042 468.63132177505 -0.138400000000018
      vertex 599.610153528017 468.409839645929 -0.138400000000018
   endloop
endfacet
facet normal -0.173304733014145 0.984868249825781 0.0
   outer loop
      vertex 602.198343979042 468.63132177505 -0.138400000000018
      vertex 599.610153528017 468.409839645929 0.861599999999982
      vertex 602.198343979042 468.63132177505 0.861599999999982
   endloop
endfacet
facet normal 0.173304733014148 0.98486824982578 0.0
   outer loop
      vertex 604.786534430068 468.409839645929 0.861599999999982
      vertex 607.198343979042 467.760486899648 -0.138400000000018
      vertex 604.786534430068 468.409839645929 -0.138400000000018
   endloop
endfacet
facet normal 0.173304733014148 0.98486824982578 0.0
   outer loop
      vertex 607.198343979042 467.760486899648 -0.138400000000018
      vertex 604.786534430068 468.409839645929 0.861599999999982
      vertex 607.198343979042 467.760486899648 0.861599999999982
   endloop
endfacet
facet normal 0.980098574029483 -0.198511423312048 0.0
   outer loop
      vertex 612.198343979042 462.13132177505 -0.138400000000018
      vertex 611.857602241933 460.448997981883 0.861599999999982
      vertex 611.857602241933 460.448997981883 -0.138400000000018
   endloop
endfacet
facet normal 0.980098574029483 -0.198511423312048 0.0
   outer loop
      vertex 611.857602241933 460.448997981883 0.861599999999982
      vertex 612.198343979042 462.13132177505 -0.138400000000018
      vertex 612.198343979042 462.13132177505 0.861599999999982
   endloop
endfacet
facet normal -0.980098574029483 0.198511423312048 0.0
   outer loop
      vertex 592.539085716152 463.813645568216 0.861599999999982
      vertex 592.198343979042 462.13132177505 -0.138400000000018
      vertex 592.198343979042 462.13132177505 0.861599999999982
   endloop
endfacet
facet normal -0.980098574029483 0.198511423312048 0.0
   outer loop
      vertex 592.198343979042 462.13132177505 -0.138400000000018
      vertex 592.539085716152 463.813645568216 0.861599999999982
      vertex 592.539085716152 463.813645568216 -0.138400000000018
   endloop
endfacet
facet normal -0.843322126015792 -0.537408403146252 -0.0
   outer loop
      vertex 592.539085716152 460.448997981883 0.861599999999982
      vertex 593.538089941198 458.88132177505 -0.138400000000018
      vertex 593.538089941198 458.88132177505 0.861599999999982
   endloop
endfacet
facet normal -0.843322126015792 -0.537408403146252 -0.0
   outer loop
      vertex 593.538089941198 458.88132177505 -0.138400000000018
      vertex 592.539085716152 460.448997981883 0.861599999999982
      vertex 592.539085716152 460.448997981883 -0.138400000000018
   endloop
endfacet
facet normal 2.96163267393752e-015 1.0 0.0
   outer loop
      vertex 602.198343979042 468.63132177505 0.861599999999982
      vertex 604.786534430068 468.409839645929 -0.138400000000018
      vertex 602.198343979042 468.63132177505 -0.138400000000018
   endloop
endfacet
facet normal 2.96163267393752e-015 1.0 0.0
   outer loop
      vertex 604.786534430068 468.409839645929 -0.138400000000018
      vertex 602.198343979042 468.63132177505 0.861599999999982
      vertex 604.786534430068 468.409839645929 0.861599999999982
   endloop
endfacet
facet normal 0.0 0.0 1.0
   outer loop
      vertex 592.539085716152 460.448997981883 0.861599999999982
      vertex 592.539085716152 463.813645568216 0.861599999999982
      vertex 592.198343979042 462.13132177505 0.861599999999982
   endloop
endfacet
facet normal 0.0 0.0 1.0
   outer loop
      vertex 592.539085716152 463.813645568216 0.861599999999982
      vertex 592.539085716152 460.448997981883 0.861599999999982
      vertex 593.538089941198 458.88132177505 0.861599999999982
   endloop
endfacet
facet normal 0.0 0.0 1.0
   outer loop
      vertex 592.539085716152 463.813645568216 0.861599999999982
      vertex 593.538089941198 458.88132177505 0.861599999999982
      vertex 593.538089941198 465.38132177505 0.861599999999982
   endloop
endfacet
facet normal 0.0 0.0 1.0
   outer loop
      vertex 593.538089941198 465.38132177505 0.861599999999982
      vertex 593.538089941198 458.88132177505 0.861599999999982
      vertex 594.202968337321 462.013628571561 0.861599999999982
   endloop
endfacet
facet normal 0.0 0.0 1.0
   outer loop
      vertex 594.202968337321 462.013628571561 0.861599999999982
      vertex 593.538089941198 458.88132177505 0.861599999999982
      vertex 595.127276167177 457.535127697337 0.861599999999982
   endloop
endfacet
facet normal 0.0 0.0 1.0
   outer loop
      vertex 594.202968337321 462.013628571561 0.861599999999982
      vertex 595.127276167177 457.535127697337 0.861599999999982
      vertex 594.284383269242 461.630607174562 0.861599999999982
   endloop
endfacet
facet normal 0.0 0.0 1.0
   outer loop
      vertex 594.284383269242 461.630607174562 0.861599999999982
      vertex 595.127276167177 457.535127697337 0.861599999999982
      vertex 594.462157286856 461.281708650115 0.861599999999982
   endloop
endfacet
facet normal 0.0 0.0 1.0
   outer loop
      vertex 594.462157286856 461.281708650115 0.861599999999982
      vertex 595.127276167177 457.535127697337 0.861599999999982
      vertex 594.724175384646 460.990709856081 0.861599999999982
   endloop
endfacet
facet normal 0.0 0.0 1.0
   outer loop
      vertex 594.724175384646 460.990709856081 0.861599999999982
      vertex 595.127276167177 457.535127697337 0.861599999999982
      vertex 595.052581462256 460.777441879374 0.861599999999982
   endloop
endfacet
facet normal 0.0 0.0 1.0
   outer loop
      vertex 595.052581462256 460.777441879374 0.861599999999982
      vertex 595.127276167177 457.535127697337 0.861599999999982
      vertex 595.424995188211 460.656438580166 0.861599999999982
   endloop
endfacet
facet normal 0.0 0.0 1.0
   outer loop
      vertex 595.424995188211 460.656438580166 0.861599999999982
      vertex 595.127276167177 457.535127697337 0.861599999999982
      vertex 597.198343979042 456.502156650451 0.861599999999982
   endloop
endfacet
facet normal 0.0 0.0 1.0
   outer loop
      vertex 595.424995188211 460.656438580166 0.861599999999982
      vertex 597.198343979042 456.502156650451 0.861599999999982
      vertex 595.816037182531 460.635946133329 0.861599999999982
   endloop
endfacet
facet normal 0.0 0.0 1.0
   outer loop
      vertex 595.816037182531 460.635946133329 0.861599999999982
      vertex 597.198343979042 456.502156650451 0.861599999999982
      vertex 596.19905857953 460.71736106525 0.861599999999982
   endloop
endfacet
facet normal 0.0 0.0 1.0
   outer loop
      vertex 596.19905857953 460.71736106525 0.861599999999982
      vertex 597.198343979042 456.502156650451 0.861599999999982
      vertex 596.547957103977 460.895135082863 0.861599999999982
   endloop
endfacet
facet normal 0.0 0.0 1.0
   outer loop
      vertex 596.547957103977 460.895135082863 0.861599999999982
      vertex 597.198343979042 456.502156650451 0.861599999999982
      vertex 596.838955898011 461.157153180654 0.861599999999982
   endloop
endfacet
facet normal 0.0 0.0 1.0
   outer loop
      vertex 596.838955898011 461.157153180654 0.861599999999982
      vertex 597.198343979042 456.502156650451 0.861599999999982
      vertex 597.052223874717 461.485559258263 0.861599999999982
   endloop
endfacet
facet normal 0.0 0.0 1.0
   outer loop
      vertex 597.052223874717 461.485559258263 0.861599999999982
      vertex 597.198343979042 456.502156650451 0.861599999999982
      vertex 597.173227173926 461.857972984218 0.861599999999982
   endloop
endfacet
facet normal 0.0 0.0 1.0
   outer loop
      vertex 597.173227173926 461.857972984218 0.861599999999982
      vertex 597.198343979042 456.502156650451 0.861599999999982
      vertex 597.193719620763 462.249014978538 0.861599999999982
   endloop
endfacet
facet normal 0.0 0.0 1.0
   outer loop
      vertex 593.538089941198 465.38132177505 0.861599999999982
      vertex 594.223460784159 462.404670565881 0.861599999999982
      vertex 595.127276167177 466.727515852762 0.861599999999982
   endloop
endfacet
facet normal 0.0 0.0 1.0
   outer loop
      vertex 594.223460784159 462.404670565881 0.861599999999982
      vertex 593.538089941198 465.38132177505 0.861599999999982
      vertex 594.202968337321 462.013628571561 0.861599999999982
   endloop
endfacet
facet normal 0.0 0.0 1.0
   outer loop
      vertex 595.127276167177 466.727515852762 0.861599999999982
      vertex 594.223460784159 462.404670565881 0.861599999999982
      vertex 594.344464083367 462.777084291836 0.861599999999982
   endloop
endfacet
facet normal 0.0 0.0 1.0
   outer loop
      vertex 595.127276167177 466.727515852762 0.861599999999982
      vertex 594.344464083367 462.777084291836 0.861599999999982
      vertex 594.557732060074 463.105490369445 0.861599999999982
   endloop
endfacet
facet normal 0.0 0.0 1.0
   outer loop
      vertex 595.127276167177 466.727515852762 0.861599999999982
      vertex 594.557732060074 463.105490369445 0.861599999999982
      vertex 594.848730854108 463.367508467236 0.861599999999982
   endloop
endfacet
facet normal 0.0 0.0 1.0
   outer loop
      vertex 595.127276167177 466.727515852762 0.861599999999982
      vertex 594.848730854108 463.367508467236 0.861599999999982
      vertex 595.197629378554 463.54528248485 0.861599999999982
   endloop
endfacet
facet normal 0.0 0.0 1.0
   outer loop
      vertex 595.127276167177 466.727515852762 0.861599999999982
      vertex 595.197629378554 463.54528248485 0.861599999999982
      vertex 597.198343979042 467.760486899648 0.861599999999982
   endloop
endfacet
facet normal 0.0 0.0 1.0
   outer loop
      vertex 597.198343979042 467.760486899648 0.861599999999982
      vertex 595.197629378554 463.54528248485 0.861599999999982
      vertex 595.580650775554 463.626697416771 0.861599999999982
   endloop
endfacet
facet normal 0.0 0.0 1.0
   outer loop
      vertex 597.198343979042 467.760486899648 0.861599999999982
      vertex 595.580650775554 463.626697416771 0.861599999999982
      vertex 595.971692769874 463.606204969933 0.861599999999982
   endloop
endfacet
facet normal 0.0 0.0 1.0
   outer loop
      vertex 597.198343979042 467.760486899648 0.861599999999982
      vertex 595.971692769874 463.606204969933 0.861599999999982
      vertex 596.344106495829 463.485201670725 0.861599999999982
   endloop
endfacet
facet normal 0.0 0.0 1.0
   outer loop
      vertex 597.198343979042 467.760486899648 0.861599999999982
      vertex 596.344106495829 463.485201670725 0.861599999999982
      vertex 596.672512573438 463.271933694018 0.861599999999982
   endloop
endfacet
facet normal 0.0 0.0 1.0
   outer loop
      vertex 597.198343979042 467.760486899648 0.861599999999982
      vertex 596.672512573438 463.271933694018 0.861599999999982
      vertex 596.934530671229 462.980934899984 0.861599999999982
   endloop
endfacet
facet normal 0.0 0.0 1.0
   outer loop
      vertex 597.198343979042 467.760486899648 0.861599999999982
      vertex 596.934530671229 462.980934899984 0.861599999999982
      vertex 597.112304688842 462.632036375538 0.861599999999982
   endloop
endfacet
facet normal 0.0 0.0 1.0
   outer loop
      vertex 597.198343979042 467.760486899648 0.861599999999982
      vertex 597.112304688842 462.632036375538 0.861599999999982
      vertex 597.193719620763 462.249014978538 0.861599999999982
   endloop
endfacet
facet normal 0.0 0.0 1.0
   outer loop
      vertex 597.198343979042 467.760486899648 0.861599999999982
      vertex 597.193719620763 462.249014978538 0.861599999999982
      vertex 597.198343979042 456.502156650451 0.861599999999982
   endloop
endfacet
facet normal 0.0 0.0 1.0
   outer loop
      vertex 597.198343979042 467.760486899648 0.861599999999982
      vertex 597.198343979042 456.502156650451 0.861599999999982
      vertex 599.610153528017 455.852803904171 0.861599999999982
   endloop
endfacet
facet normal 0.0 0.0 1.0
   outer loop
      vertex 597.198343979042 467.760486899648 0.861599999999982
      vertex 599.610153528017 455.852803904171 0.861599999999982
      vertex 599.610153528017 468.409839645929 0.861599999999982
   endloop
endfacet
facet normal 0.0 0.0 1.0
   outer loop
      vertex 599.610153528017 468.409839645929 0.861599999999982
      vertex 599.610153528017 455.852803904171 0.861599999999982
      vertex 602.198343979042 455.63132177505 0.861599999999982
   endloop
endfacet
facet normal 0.0 0.0 1.0
   outer loop
      vertex 599.610153528017 468.409839645929 0.861599999999982
      vertex 602.198343979042 455.63132177505 0.861599999999982
      vertex 602.198343979042 468.63132177505 0.861599999999982
   endloop
endfacet
facet normal 0.0 0.0 1.0
   outer loop
      vertex 602.198343979042 468.63132177505 0.861599999999982
      vertex 602.198343979042 455.63132177505 0.861599999999982
      vertex 604.786534430068 455.852803904171 0.861599999999982
   endloop
endfacet
facet normal 0.0 0.0 1.0
   outer loop
      vertex 602.198343979042 468.63132177505 0.861599999999982
      vertex 604.786534430068 455.852803904171 0.861599999999982
      vertex 604.786534430068 468.409839645929 0.861599999999982
   endloop
endfacet
facet normal 0.0 0.0 1.0
   outer loop
      vertex 604.786534430068 468.409839645929 0.861599999999982
      vertex 604.786534430068 455.852803904171 0.861599999999982
      vertex 607.198343979042 456.502156650451 0.861599999999982
   endloop
endfacet
facet normal 0.0 0.0 1.0
   outer loop
      vertex 604.786534430068 468.409839645929 0.861599999999982
      vertex 607.198343979042 456.502156650451 0.861599999999982
      vertex 607.198343979042 467.760486899648 0.861599999999982
   endloop
endfacet
facet normal 0.0 0.0 1.0
   outer loop
      vertex 607.198343979042 467.760486899648 0.861599999999982
      vertex 607.198343979042 456.502156650451 0.861599999999982
      vertex 609.269411790908 457.535127697337 0.861599999999982
   endloop
endfacet
facet normal 0.0 0.0 1.0
   outer loop
      vertex 607.198343979042 467.760486899648 0.861599999999982
      vertex 609.269411790908 457.535127697337 0.861599999999982
      vertex 609.269411790908 466.727515852762 0.861599999999982
   endloop
endfacet
facet normal 0.0 0.0 1.0
   outer loop
      vertex 609.269411790908 466.727515852762 0.861599999999982
      vertex 609.269411790908 457.535127697337 0.861599999999982
      vertex 610.858598016887 458.88132177505 0.861599999999982
   endloop
endfacet
facet normal 0.0 0.0 1.0
   outer loop
      vertex 609.269411790908 466.727515852762 0.861599999999982
      vertex 610.858598016887 458.88132177505 0.861599999999982
      vertex 610.858598016887 465.38132177505 0.861599999999982
   endloop
endfacet
facet normal 0.0 0.0 1.0
   outer loop
      vertex 610.858598016887 465.38132177505 0.861599999999982
      vertex 610.858598016887 458.88132177505 0.861599999999982
      vertex 611.857602241933 460.448997981883 0.861599999999982
   endloop
endfacet
facet normal 0.0 0.0 1.0
   outer loop
      vertex 610.858598016887 465.38132177505 0.861599999999982
      vertex 611.857602241933 460.448997981883 0.861599999999982
      vertex 611.857602241933 463.813645568216 0.861599999999982
   endloop
endfacet
facet normal 0.0 0.0 1.0
   outer loop
      vertex 611.857602241933 463.813645568216 0.861599999999982
      vertex 611.857602241933 460.448997981883 0.861599999999982
      vertex 612.198343979042 462.13132177505 0.861599999999982
   endloop
endfacet
facet normal -0.35492112052848 0.93489624996724 0.0
   outer loop
      vertex 597.198343979042 467.760486899648 0.861599999999982
      vertex 599.610153528017 468.409839645929 -0.138400000000018
      vertex 597.198343979042 467.760486899648 -0.138400000000018
   endloop
endfacet
facet normal -0.35492112052848 0.93489624996724 0.0
   outer loop
      vertex 599.610153528017 468.409839645929 -0.138400000000018
      vertex 597.198343979042 467.760486899648 0.861599999999982
      vertex 599.610153528017 468.409839645929 0.861599999999982
   endloop
endfacet
facet normal 0.173304733014148 -0.98486824982578 0.0
   outer loop
      vertex 604.786534430068 455.852803904171 0.861599999999982
      vertex 602.198343979042 455.63132177505 -0.138400000000018
      vertex 604.786534430068 455.852803904171 -0.138400000000018
   endloop
endfacet
facet normal 0.173304733014148 -0.98486824982578 0.0
   outer loop
      vertex 602.198343979042 455.63132177505 -0.138400000000018
      vertex 604.786534430068 455.852803904171 0.861599999999982
      vertex 602.198343979042 455.63132177505 0.861599999999982
   endloop
endfacet
facet normal 0.550306755818353 -0.834962558741816 0.0
   outer loop
      vertex 609.269411790908 457.535127697337 0.861599999999982
      vertex 607.198343979042 456.502156650451 -0.138400000000018
      vertex 609.269411790908 457.535127697337 -0.138400000000018
   endloop
endfacet
facet normal 0.550306755818353 -0.834962558741816 0.0
   outer loop
      vertex 607.198343979042 456.502156650451 -0.138400000000018
      vertex 609.269411790908 457.535127697337 0.861599999999982
      vertex 607.198343979042 456.502156650451 0.861599999999982
   endloop
endfacet
facet normal 2.96163267393752e-015 -1.0 0.0
   outer loop
      vertex 602.198343979042 455.63132177505 0.861599999999982
      vertex 599.610153528017 455.852803904171 -0.138400000000018
      vertex 602.198343979042 455.63132177505 -0.138400000000018
   endloop
endfacet
facet normal 2.96163267393752e-015 -1.0 0.0
   outer loop
      vertex 599.610153528017 455.852803904171 -0.138400000000018
      vertex 602.198343979042 455.63132177505 0.861599999999982
      vertex 599.610153528017 455.852803904171 0.861599999999982
   endloop
endfacet
facet normal -0.35492112052848 -0.93489624996724 0.0
   outer loop
      vertex 597.198343979042 456.502156650451 0.861599999999982
      vertex 595.127276167177 457.535127697337 -0.138400000000018
      vertex 597.198343979042 456.502156650451 -0.138400000000018
   endloop
endfacet
facet normal -0.35492112052848 -0.93489624996724 0.0
   outer loop
      vertex 595.127276167177 457.535127697337 -0.138400000000018
      vertex 597.198343979042 456.502156650451 0.861599999999982
      vertex 595.127276167177 457.535127697337 0.861599999999982
   endloop
endfacet
facet normal 0.843322126015792 -0.537408403146252 0.0
   outer loop
      vertex 611.857602241933 460.448997981883 -0.138400000000018
      vertex 610.858598016887 458.88132177505 0.861599999999982
      vertex 610.858598016887 458.88132177505 -0.138400000000018
   endloop
endfacet
facet normal 0.843322126015792 -0.537408403146252 0.0
   outer loop
      vertex 610.858598016887 458.88132177505 0.861599999999982
      vertex 611.857602241933 460.448997981883 -0.138400000000018
      vertex 611.857602241933 460.448997981883 0.861599999999982
   endloop
endfacet
facet normal 0.753336329656239 -0.657635441882558 0.0
   outer loop
      vertex 610.858598016887 458.88132177505 0.861599999999982
      vertex 609.269411790908 457.535127697337 -0.138400000000018
      vertex 610.858598016887 458.88132177505 -0.138400000000018
   endloop
endfacet
facet normal 0.753336329656239 -0.657635441882558 0.0
   outer loop
      vertex 609.269411790908 457.535127697337 -0.138400000000018
      vertex 610.858598016887 458.88132177505 0.861599999999982
      vertex 609.269411790908 457.535127697337 0.861599999999982
   endloop
endfacet
facet normal 0.753336329656247 0.657635441882548 0.0
   outer loop
      vertex 610.858598016887 465.38132177505 -0.138400000000018
      vertex 611.857602241933 463.813645568216 0.861599999999982
      vertex 611.857602241933 463.813645568216 -0.138400000000018
   endloop
endfacet
facet normal 0.753336329656247 0.657635441882548 0.0
   outer loop
      vertex 611.857602241933 463.813645568216 0.861599999999982
      vertex 610.858598016887 465.38132177505 -0.138400000000018
      vertex 610.858598016887 465.38132177505 0.861599999999982
   endloop
endfacet
facet normal 0.35492112052848 0.93489624996724 0.0
   outer loop
      vertex 607.198343979042 467.760486899648 0.861599999999982
      vertex 609.269411790908 466.727515852762 -0.138400000000018
      vertex 607.198343979042 467.760486899648 -0.138400000000018
   endloop
endfacet
facet normal 0.35492112052848 0.93489624996724 0.0
   outer loop
      vertex 609.269411790908 466.727515852762 -0.138400000000018
      vertex 607.198343979042 467.760486899648 0.861599999999982
      vertex 609.269411790908 466.727515852762 0.861599999999982
   endloop
endfacet
facet normal 0.980098574029483 0.198511423312048 0.0
   outer loop
      vertex 611.857602241933 463.813645568216 -0.138400000000018
      vertex 612.198343979042 462.13132177505 0.861599999999982
      vertex 612.198343979042 462.13132177505 -0.138400000000018
   endloop
endfacet
facet normal 0.980098574029483 0.198511423312048 0.0
   outer loop
      vertex 612.198343979042 462.13132177505 0.861599999999982
      vertex 611.857602241933 463.813645568216 -0.138400000000018
      vertex 611.857602241933 463.813645568216 0.861599999999982
   endloop
endfacet
facet normal -0.550306755818353 -0.834962558741816 0.0
   outer loop
      vertex 595.127276167177 457.535127697337 0.861599999999982
      vertex 593.538089941198 458.88132177505 -0.138400000000018
      vertex 595.127276167177 457.535127697337 -0.138400000000018
   endloop
endfacet
facet normal -0.550306755818353 -0.834962558741816 0.0
   outer loop
      vertex 593.538089941198 458.88132177505 -0.138400000000018
      vertex 595.127276167177 457.535127697337 0.861599999999982
      vertex 593.538089941198 458.88132177505 0.861599999999982
   endloop
endfacet
facet normal -0.173304733014145 -0.984868249825781 0.0
   outer loop
      vertex 599.610153528017 455.852803904171 0.861599999999982
      vertex 597.198343979042 456.502156650451 -0.138400000000018
      vertex 599.610153528017 455.852803904171 -0.138400000000018
   endloop
endfacet
facet normal -0.173304733014145 -0.984868249825781 0.0
   outer loop
      vertex 597.198343979042 456.502156650451 -0.138400000000018
      vertex 599.610153528017 455.852803904171 0.861599999999982
      vertex 597.198343979042 456.502156650451 0.861599999999982
   endloop
endfacet
facet normal -0.980098574029483 -0.198511423312048 -0.0
   outer loop
      vertex 592.198343979042 462.13132177505 0.861599999999982
      vertex 592.539085716152 460.448997981883 -0.138400000000018
      vertex 592.539085716152 460.448997981883 0.861599999999982
   endloop
endfacet
facet normal -0.980098574029483 -0.198511423312048 -0.0
   outer loop
      vertex 592.539085716152 460.448997981883 -0.138400000000018
      vertex 592.198343979042 462.13132177505 0.861599999999982
      vertex 592.198343979042 462.13132177505 -0.138400000000018
   endloop
endfacet
facet normal 0.550306755818353 0.834962558741816 0.0
   outer loop
      vertex 609.269411790908 466.727515852762 0.861599999999982
      vertex 610.858598016887 465.38132177505 -0.138400000000018
      vertex 609.269411790908 466.727515852762 -0.138400000000018
   endloop
endfacet
facet normal 0.550306755818353 0.834962558741816 0.0
   outer loop
      vertex 610.858598016887 465.38132177505 -0.138400000000018
      vertex 609.269411790908 466.727515852762 0.861599999999982
      vertex 610.858598016887 465.38132177505 0.861599999999982
   endloop
endfacet
facet normal -0.550306755818353 0.834962558741816 0.0
   outer loop
      vertex 595.127276167177 466.727515852762 0.861599999999982
      vertex 597.198343979042 467.760486899648 -0.138400000000018
      vertex 595.127276167177 466.727515852762 -0.138400000000018
   endloop
endfacet
facet normal -0.550306755818353 0.834962558741816 0.0
   outer loop
      vertex 597.198343979042 467.760486899648 -0.138400000000018
      vertex 595.127276167177 466.727515852762 0.861599999999982
      vertex 597.198343979042 467.760486899648 0.861599999999982
   endloop
endfacet
facet normal -0.753336329656247 0.657635441882548 0.0
   outer loop
      vertex 593.538089941198 465.38132177505 0.861599999999982
      vertex 595.127276167177 466.727515852762 -0.138400000000018
      vertex 593.538089941198 465.38132177505 -0.138400000000018
   endloop
endfacet
facet normal -0.753336329656247 0.657635441882548 0.0
   outer loop
      vertex 595.127276167177 466.727515852762 -0.138400000000018
      vertex 593.538089941198 465.38132177505 0.861599999999982
      vertex 595.127276167177 466.727515852762 0.861599999999982
   endloop
endfacet
facet normal 0.35492112052848 -0.93489624996724 0.0
   outer loop
      vertex 607.198343979042 456.502156650451 0.861599999999982
      vertex 604.786534430068 455.852803904171 -0.138400000000018
      vertex 607.198343979042 456.502156650451 -0.138400000000018
   endloop
endfacet
facet normal 0.35492112052848 -0.93489624996724 0.0
   outer loop
      vertex 604.786534430068 455.852803904171 -0.138400000000018
      vertex 607.198343979042 456.502156650451 0.861599999999982
      vertex 604.786534430068 455.852803904171 0.861599999999982
   endloop
endfacet
facet normal 0.0 0.0 -1.0
   outer loop
      vertex 646.198343979042 517.823519711407 -0.138400000000018
      vertex 592.198343979042 473.823519711407 -0.138400000000018
      vertex 592.198343979042 517.823519711407 -0.138400000000018
   endloop
endfacet
facet normal 0.0 0.0 -1.0
   outer loop
      vertex 592.198343979042 473.823519711407 -0.138400000000018
      vertex 646.198343979042 517.823519711407 -0.138400000000018
      vertex 646.198343979042 473.823519711407 -0.138400000000018
   endloop
endfacet
facet normal -0.0 -1.0 -0.0
   outer loop
      vertex 646.198343979042 473.823519711407 2.36159999999998
      vertex 592.198343979042 473.823519711407 -0.138400000000018
      vertex 646.198343979042 473.823519711407 -0.138400000000018
   endloop
endfacet
facet normal -0.0 -1.0 -0.0
   outer loop
      vertex 592.198343979042 473.823519711407 -0.138400000000018
      vertex 646.198343979042 473.823519711407 2.36159999999998
      vertex 592.198343979042 473.823519711407 2.36159999999998
   endloop
endfacet
facet normal -1.0 0.0 0.0
   outer loop
      vertex 592.198343979042 517.823519711407 2.36159999999998
      vertex 592.198343979042 473.823519711407 -0.138400000000018
      vertex 592.198343979042 473.823519711407 2.36159999999998
   endloop
endfacet
facet normal -1.0 0.0 0.0
   outer loop
      vertex 592.198343979042 473.823519711407 -0.138400000000018
      vertex 592.198343979042 517.823519711407 2.36159999999998
      vertex 592.198343979042 517.823519711407 -0.138400000000018
   endloop
endfacet
facet normal 0.0 0.0 1.0
   outer loop
      vertex 646.198343979042 473.823519711407 2.36159999999998
      vertex 592.198343979042 517.823519711407 2.36159999999998
      vertex 592.198343979042 473.823519711407 2.36159999999998
   endloop
endfacet
facet normal 0.0 0.0 1.0
   outer loop
      vertex 592.198343979042 517.823519711407 2.36159999999998
      vertex 646.198343979042 473.823519711407 2.36159999999998
      vertex 646.198343979042 517.823519711407 2.36159999999998
   endloop
endfacet
facet normal 0.0 1.0 0.0
   outer loop
      vertex 592.198343979042 517.823519711407 2.36159999999998
      vertex 646.198343979042 517.823519711407 -0.138400000000018
      vertex 592.198343979042 517.823519711407 -0.138400000000018
   endloop
endfacet
facet normal 0.0 1.0 0.0
   outer loop
      vertex 646.198343979042 517.823519711407 -0.138400000000018
      vertex 592.198343979042 517.823519711407 2.36159999999998
      vertex 646.198343979042 517.823519711407 2.36159999999998
   endloop
endfacet
facet normal 1.0 0.0 0.0
   outer loop
      vertex 646.198343979042 517.823519711407 -0.138400000000018
      vertex 646.198343979042 473.823519711407 2.36159999999998
      vertex 646.198343979042 473.823519711407 -0.138400000000018
   endloop
endfacet
facet normal 1.0 0.0 0.0
   outer loop
      vertex 646.198343979042 473.823519711407 2.36159999999998
      vertex 646.198343979042 517.823519711407 -0.138400000000018
      vertex 646.198343979042 517.823519711407 2.36159999999998
   endloop
endfacet
endsolid robot-3-0 - copia
